HIERARCHY
ROOT Hips
{
  OFFSET 193.481 97.1834 185.277
  CHANNELS 6 Xposition Yposition Zposition Zrotation Xrotation Yrotation
  JOINT ToSpine
  {
    OFFSET -0.0105055 1.38907 -7.13956
    CHANNELS 3 Zrotation Xrotation Yrotation
    JOINT Spine
    {
      OFFSET 0.0105055 10 1
      CHANNELS 3 Zrotation Xrotation Yrotation
      JOINT Spine1
      {
        OFFSET 0 12 1.60637
        CHANNELS 3 Zrotation Xrotation Yrotation
        JOINT Neck
        {
          OFFSET 0 27 2.26658
          CHANNELS 3 Zrotation Xrotation Yrotation
          JOINT Head
          {
            OFFSET 0 9 2.12705
            CHANNELS 3 Zrotation Xrotation Yrotation
            End Site
            {
              OFFSET 0 11 2
            }
          }
        }
        JOINT LeftShoulder
        {
          OFFSET 8 19.6109 2.86452
          CHANNELS 3 Zrotation Xrotation Yrotation
          JOINT LeftArm
          {
            OFFSET 12 1 0.681055
            CHANNELS 3 Zrotation Xrotation Yrotation
            JOINT LeftForeArm
            {
              OFFSET 19 0 -1.52608
              CHANNELS 3 Zrotation Xrotation Yrotation
              JOINT LeftHand
              {
                OFFSET 23 0 0
                CHANNELS 3 Zrotation Xrotation Yrotation
                End Site
                {
                  OFFSET 10 0 0
                }
              }
            }
          }
        }
        JOINT RightShoulder
        {
          OFFSET -8 19.6109 2.86452
          CHANNELS 3 Zrotation Xrotation Yrotation
          JOINT RightArm
          {
            OFFSET -12 1 0.681055
            CHANNELS 3 Zrotation Xrotation Yrotation
            JOINT RightForeArm
            {
              OFFSET -19 0 -1.52608
              CHANNELS 3 Zrotation Xrotation Yrotation
              JOINT RightHand
              {
                OFFSET -23 0 0
                CHANNELS 3 Zrotation Xrotation Yrotation
                End Site
                {
                  OFFSET -10 0 0
                }
              }
            }
          }
        }
      }
    }
  }
  JOINT LeftUpLeg
  {
    OFFSET 9 -7.17245 0
    CHANNELS 3 Zrotation Xrotation Yrotation
    JOINT LeftLeg
    {
      OFFSET 0 -44.1113 0
      CHANNELS 3 Zrotation Xrotation Yrotation
      JOINT LeftFoot
      {
        OFFSET 0 -36.1829 0
        CHANNELS 3 Zrotation Xrotation Yrotation
        JOINT LeftToeBase
        {
          OFFSET 0 -4.84184 13
          CHANNELS 3 Zrotation Xrotation Yrotation
          End Site
          {
            OFFSET 0 1 6
          }
        }
      }
    }
  }
  JOINT RightUpLeg
  {
    OFFSET -9 -7.17245 0
    CHANNELS 3 Zrotation Xrotation Yrotation
    JOINT RightLeg
    {
      OFFSET 0 -44.0551 0
      CHANNELS 3 Zrotation Xrotation Yrotation
      JOINT RightFoot
      {
        OFFSET 0 -36.1469 0
        CHANNELS 3 Zrotation Xrotation Yrotation
        JOINT RightToeBase
        {
          OFFSET 0 -4.92256 13
          CHANNELS 3 Zrotation Xrotation Yrotation
          End Site
          {
            OFFSET 0 1 6
          }
        }
      }
    }
  }
}
MOTION
Frames:	6
Frame Time:	0.0333333
193.481 97.1834 185.277 9.40714 -0.456645 -130.716 0 0 0 0.208646 0.678282 -13.7742 9.82622 6.29102 -16.1919 13.7506 -29.4763 19.2551 -7.40291 18.1428 20.0196 12.1079 -0.278222 -9.45356 -30.2877 -4.82207 -56.5292 34.3709 -15.6734 -111.553 -7.04009 0.198045 -3.21867 -8.51219 0.0992699 6.3978 72.5911 15.4039 -53.5055 -26.5376 11.7057 67.8903 -1.52777 -0.152658 11.4117 4.30225 27.3883 9.63375 -0.779184 6.39614 -21.6932 11.0055 10.9085 -1.05406 0.548357 -10.593 1.03358 11.1719 -44.4908 9.21431 2.02235e-007 62.2843 -14.4184 -28.1403 -16.1459 -4.07191 4.23387 -15.9425 -3.61141 
184.144 96.5974 176.141 10.485 -1.20055 -129.71 0 0 0 -3.17469 -3.4251 -15.039 13.9049 8.49889 -17.7789 17.8088 -23.2388 19.1661 -13.9499 14.2594 23.4414 16.5459 -0.827185 -10.1767 -28.0807 -4.32203 -59.1679 32.7948 -11.9243 -107.78 -8.8512 0.356764 -4.60716 -10.0371 -0.0285028 5.10093 72.7038 13.8648 -55.5715 -20.5801 8.44418 68.6401 0.826385 0.153072 20.9877 5.13593 32.3762 11.7733 -1.83112 8.7876 -14.0842 14.2579 6.18782 -0.774649 0.800518 -13.8385 1.04284 9.161 -43.5276 6.49242 -4.77395e-007 38.554 -12.0667 -25.737 -9.52972 -2.18186 4.37843 -16.7736 -5.74287 
174.759 95.1813 166.537 7.57098 -1.34931 -126.857 0 0 0 -8.21745 -3.12084 -16.982 15.9426 9.05762 -19.3949 20.0148 -19.6876 18.1684 -14.9475 13.0289 23.7566 16.5672 -0.846133 -10.4442 -25.627 -1.59851 -59.4631 32.513 -10.4524 -105.888 -9.82654 0.365908 -4.2546 -7.94609 0.112869 4.03948 70.4951 11.6225 -55.184 -20.5279 7.34332 71.1527 0.17769 0.030681 19.5929 6.87576 40.1407 13.5411 -2.11809 12.9863 -12.8862 10.512 2.91349 -0.268077 0.981435 -14.0349 -0.344668 2.93798 -37.4724 0.564623 1.08278 17.3072 -6.09187 -22.4489 -3.36706 -0.668372 4.42095 -17.2919 -8.04648 
165.897 93.5189 157.434 3.40298 -0.704128 -123.773 0 0 0 -11.8058 -0.317914 -17.8191 16.7821 8.94029 -20.2031 21.0355 -14.97 15.8605 -17.4828 9.41023 23.292 13.7178 -0.548166 -11.8704 -25.2231 2.72045 -56.7865 34.2391 -10.5269 -105.026 -9.66309 0.448718 -5.30482 -4.23619 0.261316 2.0109 65.3473 8.21783 -52.7967 -40.3291 8.71495 79.8804 -0.978274 -0.0973469 11.3652 10.6828 45.7904 12.6162 -0.0588975 22.46 -12.634 11.6843 -0.938896 0.0960697 1.13075 -14.756 -1.24277 -2.00954 -32.1244 -2.15783 1.72494 9.23434 -6.88614 -19.5724 -3.38783 -0.584504 4.05955 -15.2989 -4.9531 
158.012 92.759 148.801 1.08835 -1.19814 -122.712 0 0 0 -14.5384 1.62105 -16.3035 18.3492 8.15152 -19.6902 17.0198 -11.2753 13.7353 -15.8518 5.32654 20.4699 6.60056 0.425242 -12.3283 -23.1406 7.68113 -53.0867 30.3499 -9.55984 -105.835 -7.89007 0.448919 -6.50262 0.0956401 0.216413 -0.967581 61.9931 4.94432 -48.3742 -36.0989 4.92689 83.2825 1.56174 0.162161 11.8552 13.0605 44.9306 7.13785 -2.72124e-007 36.7653 -5.25975 18.9282 -1.43468 0.239171 0.993898 -17.1905 1.85843 -4.51022 -32.1502 -5.81506 1.27647 16.5874 -2.14295 -15.5386 1.03405 0.141088 4.42355 -17.5558 -9.53118 
150.15 91.9855 140.786 0.758773 0.6108 -123.855 0 0 0 -11.4764 5.16444 -14.2661 18.5692 4.8553 -18.5479 12.0142 -9.42157 13.5319 -13.2471 3.06992 18.6842 -3.18994 1.75445 -11.9849 -23.6909 12.8881 -42.789 27.9603 -9.49198 -107.258 -9.0639 0.64663 -8.1444 9.43489 0.837775 1.47491 53.1034 0.985236 -42.7466 -34.2786 1.26869 88.1395 0.383031 0.0352405 10.5133 15.4044 40.5793 4.92366 1.92563e-008 54.8025 1.44093 20.6098 -4.84278 0.881016 1.13985 -17.2925 0.335759 -4.57224 -34.8895 -17.585 -1.53817e-009 34.181 11.1685 -18.7795 10.6273 1.76231 2.43886 -6.57545 -10.153 
